#!OML:ASF H:\MichaelJackson\Top Level 1\Subject 1\Session 1\male.ASF
:FULLY-SPECIFIED
:DEGREES
711
root 1.64259 15.2943 33.4945 -355.138 -1.61762 5.71799
lowerback 0.411123 -3.19994 -0.186795
upperback -0.774886 -4.34027 -5.14818
thorax -1.41678 -2.20858 -5.12818
lowerneck -6.2426 -1.19843 2.53781
upperneck 2.94298 -1.92129 2.46414
head 1.98821 -0.86112 0.275475
rclavicle -3.97569e-015 -3.10104e-014
rhumerus 13.5788 -38.2543 -5.75116
rradius 23.8612
rwrist -1.51322
rhand -41.9006 -52.0081
rfingers 7.12502
rthumb -14.7994 -441.46
lclavicle -3.97569e-015 -3.10104e-014
lhumerus -57.073 -36.1669 113.091
lradius 56.2105
lwrist 27.7419
lhand 27.8403 27.3384
lfingers 7.12502
lthumb 51.7552 47.5884
rfemur -29.8563 -18.7066 -7.63153
rtibia 50.3906
rfoot -18.7426 0.906958
rtoes -37.2249
lfemur 1.55091 -18.9967 0.571214
ltibia 9.92946
lfoot -16.8426 18.8444
ltoes -29.0637
712
root 1.62478 15.2872 33.5122 -355.229 -1.16609 5.67589
lowerback 0.526526 -3.24035 0.0995509
upperback -0.754535 -4.39513 -5.18194
thorax -1.49008 -2.24029 -5.31715
lowerneck -6.06518 -1.0391 2.92724
upperneck 2.76117 -1.72823 2.48183
head 1.89328 -0.764791 0.223432
rclavicle 1.70458e-014 7.63333e-014
rhumerus 10.847 -33.8809 -1.44192
rradius 24.5634
rwrist -5.22503
rhand -41.0654 -49.4182
rfingers 7.12502
rthumb -13.9947 -438.927
lclavicle 1.70458e-014 7.63333e-014
lhumerus -57.1795 -35.7108 112.817
lradius 56.2787
lwrist 27.4769
lhand 27.7446 26.9866
lfingers 7.12502
lthumb 51.6683 47.2873
rfemur -29.5709 -19.2791 -7.60953
rtibia 50.6447
rfoot -18.9827 1.05955
rtoes -37.1061
lfemur 1.6838 -19.5424 0.674018
ltibia 9.66138
lfoot -16.4499 19.0686
ltoes -29.0581
713
root 1.60654 15.282 33.5316 -355.267 -0.720434 5.61635
lowerback 0.483912 -3.36514 0.311656
upperback -0.717839 -4.55813 -5.21216
thorax -1.46319 -2.32424 -5.46775
lowerneck -5.94199 -0.803585 3.38934
upperneck 2.69885 -1.44664 2.56599
head 1.84885 -0.619428 0.182125
rclavicle -4.42296e-014 1.03368e-014
rhumerus 8.80679 -29.2943 1.92925
rradius 25.1907
rwrist -7.08676
rhand -39.1876 -47.9159
rfingers 7.12502
rthumb -12.1846 -437.541
lclavicle -4.42296e-014 1.03368e-014
lhumerus -57.3193 -35.3231 112.53
lradius 56.3026
lwrist 27.7374
lhand 27.3927 26.7724
lfingers 7.12502
lthumb 51.3484 47.2573
rfemur -29.3413 -19.7017 -7.54856
rtibia 50.9039
rfoot -19.1594 1.05061
rtoes -36.9248
lfemur 1.71985 -20.0626 0.818598
ltibia 9.45167
lfoot -16.0844 19.1681
ltoes -29.0666
714
root 1.58855 15.279 33.5517 -355.235 -0.324187 5.5371
lowerback 0.272988 -3.54841 0.456867
upperback -0.672037 -4.7953 -5.21856
thorax -1.33384 -2.44301 -5.56526
lowerneck -5.86141 -0.510236 3.88384
upperneck 2.74173 -1.09531 2.65808
head 1.84815 -0.436211 0.139509
rclavicle 5.96354e-016 3.10104e-014
rhumerus 7.73228 -26.0721 4.02006
rradius 25.5291
rwrist -6.44564
rhand -36.6579 -47.082
rfingers 7.12502
rthumb -9.74456 -436.837
lclavicle 5.96354e-016 3.10104e-014
lhumerus -57.4707 -35.0498 112.292
lradius 56.2838
lwrist 28.5155
lhand 26.7856 26.7733
lfingers 7.12502
lthumb 50.7953 47.5683
rfemur -29.2131 -19.9679 -7.43319
rtibia 51.1594
rfoot -19.2714 0.921038
rtoes -36.6564
lfemur 1.6666 -20.5098 0.999285
ltibia 9.3009
lfoot -15.6773 19.2934
ltoes -29.1031
715
root 1.57198 15.2773 33.5712 -355.132 -0.0206663 5.44245
lowerback -0.0825073 -3.75574 0.551411
upperback -0.625853 -5.06166 -5.18906
thorax -1.11961 -2.57428 -5.60776
lowerneck -5.81748 -0.183826 4.36948
upperneck 2.86569 -0.701798 2.70398
head 1.8825 -0.230738 0.0849787
rclavicle -2.3059e-014 3.18055e-014
rhumerus 7.4509 -24.5313 5.04803
rradius 25.5592
rwrist -4.31434
rhand -34.4747 -47.2228
rfingers 7.12502
rthumb -7.63778 -437.065
lclavicle -2.3059e-014 3.18055e-014
lhumerus -57.6108 -34.9211 112.156
lradius 56.2374
lwrist 29.7355
lhand 25.9197 27.0325
lfingers 7.12502
lthumb 50.0042 48.2531
rfemur -29.2153 -20.0848 -7.26553
rtibia 51.4088
rfoot -19.3267 0.711932
rtoes -36.3499
lfemur 1.56003 -20.8431 1.18991
ltibia 9.2035
lfoot -15.2029 19.5585
ltoes -29.213
716
root 1.55796 15.2756 33.5889 -354.978 0.15479 5.34287
lowerback -0.529357 -3.94913 0.609771
upperback -0.588065 -5.30801 -5.11963
thorax -0.854306 -2.69399 -5.59814
lowerneck -5.78958 0.144202 4.80092
upperneck 3.03611 -0.301486 2.67613
head 1.93711 -0.0226126 0.0166679
rclavicle -1.4064e-014 2.8625e-014
rhumerus 7.70498 -24.2572 5.37066
rradius 25.3615
rwrist -2.20084
rhand -33.028 -48.0075
rfingers 7.12502
rthumb -6.24122 -437.896
lclavicle -1.4064e-014 2.8625e-014
lhumerus -57.7215 -34.9395 112.157
lradius 56.1804
lwrist 31.2204
lhand 24.879 27.5021
lfingers 7.12502
lthumb 49.05 49.2097
rfemur -29.3531 -20.0685 -7.06537
rtibia 51.6528
rfoot -19.3359 0.482444
rtoes -36.0153
lfemur 1.45308 -21.0371 1.35481
ltibia 9.14828
lfoot -14.6724 19.9961
ltoes -29.4246
717
root 1.5473 15.2727 33.6038 -354.811 0.180428 5.24828
lowerback -0.988819 -4.09766 0.648816
upperback -0.562044 -5.49503 -5.02148
thorax -0.583372 -2.78337 -5.55253
lowerneck -5.75268 0.448197 5.15612
upperneck 3.20474 0.0766128 2.57745
head 1.99143 0.171938 -0.0617161
rclavicle -1.799e-014 -5.56597e-015
rhumerus 8.27657 -24.7458 5.26645
rradius 25.0122
rwrist -1.07379
rhand -32.419 -48.9087
rfingers 7.12502
rthumb -5.65332 -438.813
lclavicle -1.799e-014 -5.56597e-015
lhumerus -57.7877 -35.0853 112.287
lradius 56.1308
lwrist 32.724
lhand 23.8167 28.1019
lfingers 7.12502
lthumb 48.0725 50.2808
rfemur -29.6037 -19.9365 -6.85982
rtibia 51.8954
rfoot -19.3156 0.27822
rtoes -35.6827
lfemur 1.40415 -21.0871 1.46084
ltibia 9.12418
lfoot -14.1389 20.5616
ltoes -29.7197
718
root 1.54058 15.2675 33.6152 -354.682 0.0500142 5.16448
lowerback -1.37487 -4.18466 0.67757
upperback -0.544872 -5.60224 -4.90874
thorax -0.351869 -2.833 -5.48277
lowerneck -5.69867 0.708985 5.42933
upperneck 3.34406 0.40835 2.43112
head 2.03418 0.340365 -0.142858
rclavicle -3.21037e-014 7.95139e-016
rhumerus 8.93608 -25.3799 5.02049
rradius 24.6388
rwrist -1.45284
rhand -32.5211 -49.6007
rfingers 7.12502
rthumb -5.75183 -439.503
lclavicle -3.21037e-014 7.95139e-016
lhumerus -57.7892 -35.304 112.503
lradius 56.096
lwrist 33.9796
lhand 22.8898 28.7084
lfingers 7.12502
lthumb 47.217 51.2784
rfemur -29.9196 -19.7109 -6.6752
rtibia 52.1383
rfoot -19.2853 0.139248
rtoes -35.3711
lfemur 1.47091 -21.0068 1.48317
ltibia 9.11875
lfoot -13.6635 21.1745
ltoes -30.0573
719
root 1.53775 15.2597 33.6233 -354.634 -0.226622 5.09567
lowerback -1.61885 -4.20469 0.697167
upperback -0.525977 -5.62318 -4.79852
thorax -0.188619 -2.84014 -5.40019
lowerneck -5.64279 0.919755 5.62701
upperneck 3.43974 0.681616 2.28143
head 2.06234 0.477441 -0.214364
rclavicle 2.5345e-015 -4.69132e-014
rhumerus 9.48601 -25.7353 4.85595
rradius 24.3454
rwrist -3.26999
rhand -33.0919 -49.9564
rfingers 7.12502
rthumb -6.3029 -439.843
lclavicle 2.5345e-015 -4.69132e-014
lhumerus -57.7001 -35.5332 112.735
lradius 56.0678
lwrist 34.7191
lhand 22.3349 29.1755
lfingers 7.12502
lthumb 46.7037 51.9712
rfemur -30.2457 -19.4197 -6.53181
rtibia 52.3803
rfoot -19.262 0.087581
rtoes -35.1087
lfemur 1.69508 -20.8221 1.41062
ltibia 9.11893
lfoot -13.293 21.7595
ltoes -30.4023
720
root 1.53829 15.2495 33.6286 -354.701 -0.619792 5.03417
lowerback -1.67466 -4.1609 0.717984
upperback -0.497084 -5.5625 -4.70577
thorax -0.114153 -2.80753 -5.32132
lowerneck -5.58953 1.07536 5.76034
upperneck 3.48295 0.886389 2.17149
head 2.0726 0.579166 -0.264824
rclavicle 2.79292e-014 3.10104e-014
rhumerus 9.7866 -25.637 4.89325
rradius 24.2027
rwrist -5.92634
rhand -33.8193 -49.9499
rfingers 7.12502
rthumb -7.00513 -439.814
lclavicle 2.79292e-014 3.10104e-014
lhumerus -57.5348 -35.7349 112.944
lradius 56.0313
lwrist 34.8309
lhand 22.1934 29.3864
lfingers 7.12502
lthumb 46.5727 52.2386
rfemur -30.5258 -19.0954 -6.42961
rtibia 52.6154
rfoot -19.2597 0.131758
rtoes -34.907
lfemur 2.09125 -20.5713 1.26162
ltibia 9.11255
lfoot -13.0451 22.2517
ltoes -30.7068
721
root 1.54114 15.2377 33.6319 -354.89 -1.09406 4.97132
lowerback -1.53504 -4.06253 0.745365
upperback -0.447531 -5.43197 -4.63953
thorax -0.124344 -2.74099 -5.25849
lowerneck -5.56813 1.18008 5.85841
upperneck 3.48392 1.02253 2.11814
head 2.07307 0.646772 -0.293728
rclavicle 5.6753e-014 -7.95139e-016
rhumerus 9.82533 -25.1842 5.10333
rradius 24.1878
rwrist -8.5291
rhand -34.4089 -49.654
rfingers 7.12502
rthumb -7.57424 -439.498
lclavicle 5.6753e-014 -7.95139e-016
lhumerus -57.3127 -35.9006 113.107
lradius 55.9673
lwrist 34.3117
lhand 22.4454 29.2452
lfingers 7.12502
lthumb 46.8059 51.9964
rfemur -30.7245 -18.7641 -6.35739
rtibia 52.8363
rfoot -19.2847 0.267621
rtoes -34.7608
lfemur 2.64275 -20.2883 1.06904
ltibia 9.09164
lfoot -12.901 22.6303
ltoes -30.9621
